<?xml version="1.0" encoding="UTF-8" standalone="no"?>
<!-- Created with Inkscape (http://www.inkscape.org/) -->

<svg
   width="210mm"
   height="297mm"
   viewBox="0 0 210 297"
   version="1.1"
   id="svg5"
   xml:space="preserve"
   inkscape:version="1.2 (1:1.2.1+202207142221+cd75a1ee6d)"
   sodipodi:docname="axis_weak.svg"
   inkscape:export-filename="axis_weak.png"
   inkscape:export-xdpi="150"
   inkscape:export-ydpi="150"
   xmlns:inkscape="http://www.inkscape.org/namespaces/inkscape"
   xmlns:sodipodi="http://sodipodi.sourceforge.net/DTD/sodipodi-0.dtd"
   xmlns="http://www.w3.org/2000/svg"
   xmlns:svg="http://www.w3.org/2000/svg"
   xmlns:ns6="http://www.iki.fi/pav/software/textext/"><sodipodi:namedview
     id="namedview7"
     pagecolor="#ffffff"
     bordercolor="#666666"
     borderopacity="1.0"
     inkscape:showpageshadow="2"
     inkscape:pageopacity="0.0"
     inkscape:pagecheckerboard="0"
     inkscape:deskcolor="#d1d1d1"
     inkscape:document-units="mm"
     showgrid="false"
     showguides="true"
     inkscape:zoom="1"
     inkscape:cx="58"
     inkscape:cy="422.5"
     inkscape:window-width="2488"
     inkscape:window-height="1376"
     inkscape:window-x="72"
     inkscape:window-y="214"
     inkscape:window-maximized="1"
     inkscape:current-layer="layer1"><sodipodi:guide
       position="76.597145,115.10313"
       orientation="1,0"
       id="guide687"
       inkscape:locked="false" /><sodipodi:guide
       position="59.583126,169.74846"
       orientation="0,-1"
       id="guide850"
       inkscape:locked="false" /><sodipodi:guide
       position="59.214923,114.0353"
       orientation="0,-1"
       id="guide856"
       inkscape:locked="false" /><sodipodi:guide
       position="58.990573,169.65067"
       orientation="1,0"
       id="guide858"
       inkscape:locked="false" /><sodipodi:guide
       position="95.612234,114.0353"
       orientation="1,0"
       id="guide860"
       inkscape:locked="false" /><sodipodi:guide
       position="40.065483,162.15585"
       orientation="1,0"
       id="guide862"
       inkscape:locked="false" /></sodipodi:namedview><defs
     id="defs2"><mask
       maskUnits="userSpaceOnUse"
       id="mask642"><rect
         style="fill:#ffffff;stroke:none;stroke-width:2.47784;stroke-linejoin:bevel;paint-order:markers stroke fill"
         id="rect644"
         width="18.925089"
         height="55.713161"
         x="40.058685"
         y="127.37289"
         ry="0" /></mask><mask
       maskUnits="userSpaceOnUse"
       id="mask751"><rect
         style="fill:#ffffff;stroke:none;stroke-width:2.48372;stroke-linejoin:bevel;paint-order:markers stroke fill"
         id="rect753"
         width="19.015089"
         height="55.713161"
         x="76.597145"
         y="127.25154"
         ry="0" /></mask><mask
       maskUnits="userSpaceOnUse"
       id="mask884"><rect
         style="fill:#ffffff;stroke:none;stroke-width:2.53079;stroke-linejoin:bevel;paint-order:markers stroke fill"
         id="rect886"
         width="20.738461"
         height="53.03796"
         x="58.990574"
         y="127.25153"
         ry="0" /></mask><mask
       maskUnits="userSpaceOnUse"
       id="mask11960"><rect
         style="fill:#ffffff;fill-opacity:1;stroke:none;stroke-width:0.3;stroke-linecap:round;stroke-linejoin:bevel;stroke-dasharray:none;stroke-opacity:1;paint-order:markers stroke fill"
         id="rect11962"
         width="136.80641"
         height="114.74187"
         x="45.390026"
         y="135.56798"
         ry="0.26665479" /></mask></defs><g
     inkscape:label="Layer 1"
     inkscape:groupmode="layer"
     id="layer1"><rect
       style="fill:none;fill-opacity:1;stroke:none;stroke-width:0.3;stroke-linecap:round;stroke-linejoin:bevel;stroke-dasharray:none;stroke-opacity:1;paint-order:markers stroke fill"
       id="rect15392"
       width="55.310665"
       height="55.673515"
       x="40.206177"
       y="127.34593"
       ry="0.26665479" /><path
       style="fill:#484848;fill-opacity:1;stroke:#b4b4b4;stroke-width:0.322;stroke-linejoin:round;stroke-dasharray:none;stroke-opacity:1"
       d="m 86.260617,163.40633 h 1.23659 v -0.91077 c 0,-0.51684 0.016,-0.56407 0.016,-0.9047 0.123461,0.12346 0.68051,0.73349 1.49269,1.62258 l 1.47669,1.61651 -0.12623,0.12925 c -0.0694,0.0711 -0.74319,0.78366 -1.49724,1.58349 l -1.371,1.45425 -0.005,-0.91324 -0.005,-0.91324 h -1.22733 -1.22732 v -1.38206 -1.38207 z"
       id="path7054"
       sodipodi:nodetypes="ccscsccscccccccc" /><path
       style="fill:#484848;stroke-width:0.322;fill-opacity:1;stroke:#b4b4b4;stroke-opacity:1;stroke-dasharray:none"
       d="m 50.944343,163.22366 h 1.23659 v -0.91077 c 0,-0.51684 0.007,-0.90814 0.016,-0.9047 0.009,0.003 0.68051,0.73349 1.49269,1.62258 l 1.47669,1.61651 -0.12623,0.12925 c -0.0694,0.0711 -0.74319,0.78366 -1.49724,1.58349 l -1.371,1.45425 -0.005,-0.91324 -0.005,-0.91324 h -1.22733 -2.254207 v -1.38206 -1.38207 z"
       id="path7052"
       sodipodi:nodetypes="ccscsccscccccccc" /><g
       id="g7061"
       transform="matrix(0.70841391,0,0,0.70841391,19.362288,44.110267)"><rect
         style="fill:#c66653;fill-opacity:1;stroke:none;stroke-width:2.81186;stroke-linejoin:bevel;paint-order:markers stroke fill"
         id="rect5259"
         width="5.7961822"
         height="3.5014443"
         x="88.069191"
         y="143.71671"
         ry="0.32427064"
         rx="0"
         inkscape:spray-origin="#rect918" /><rect
         style="fill:#524bbc;fill-opacity:1;stroke:none;stroke-width:2.81186;stroke-linejoin:bevel;paint-order:markers stroke fill"
         id="rect5277"
         width="5.7961822"
         height="3.5014443"
         x="83.608025"
         y="134.59711"
         ry="0.32427064"
         rx="0"
         inkscape:spray-origin="#rect918" /><rect
         style="fill:#c53b5e;fill-opacity:1;stroke:none;stroke-width:2.81186;stroke-linejoin:bevel;paint-order:markers stroke fill"
         id="rect5285"
         width="5.7961822"
         height="3.5014443"
         x="81.833344"
         y="141.88799"
         ry="0.32427064"
         rx="0"
         inkscape:spray-origin="#rect918" /><rect
         style="fill:#c09e4a;fill-opacity:1;stroke:none;stroke-width:2.81186;stroke-linejoin:bevel;paint-order:markers stroke fill"
         id="rect5301"
         width="5.7961822"
         height="3.5014443"
         x="90.142303"
         y="137.47685"
         ry="0.32427064"
         rx="0"
         inkscape:spray-origin="#rect918" /></g><rect
       style="fill:#484848;fill-opacity:1;stroke:#b4b4b4;stroke-width:0.822;stroke-linejoin:bevel;stroke-dasharray:none;stroke-opacity:1;paint-order:stroke fill markers"
       id="rect6212"
       width="32.753372"
       height="11.610192"
       x="52.148056"
       y="158.8082"
       ry="1.6346345" /><g
       id="g5255"
       transform="matrix(0.57691707,0,0,0.57691707,28.471524,60.250759)"><rect
         style="fill:#983baa;fill-opacity:1;stroke:none;stroke-width:3.49999;stroke-linejoin:bevel;paint-order:markers stroke fill"
         id="rect918"
         width="7.2146435"
         height="4.3583298"
         x="58.798847"
         y="146.71075"
         ry="0.40362725"
         rx="0" /><rect
         style="fill:#c66653;fill-opacity:1;stroke:none;stroke-width:3.49999;stroke-linejoin:bevel;paint-order:markers stroke fill"
         id="rect2477"
         width="7.2146435"
         height="4.3583298"
         x="49.057117"
         y="150.76709"
         ry="0.40362725"
         rx="0"
         inkscape:spray-origin="#rect918" /><rect
         style="fill:#c35f3d;fill-opacity:1;stroke:none;stroke-width:3.49999;stroke-linejoin:bevel;paint-order:markers stroke fill"
         id="rect2479"
         width="7.2146435"
         height="4.3583298"
         x="56.619019"
         y="143.33693"
         ry="0.40362725"
         rx="0"
         inkscape:spray-origin="#rect918" /><rect
         style="fill:#b03e5a;fill-opacity:1;stroke:none;stroke-width:3.49999;stroke-linejoin:bevel;paint-order:markers stroke fill"
         id="rect2481"
         width="7.2146435"
         height="4.3583298"
         x="57.181316"
         y="150.24863"
         ry="0.40362725"
         rx="0"
         inkscape:spray-origin="#rect918" /><rect
         style="fill:#c34b77;fill-opacity:1;stroke:none;stroke-width:3.49999;stroke-linejoin:bevel;paint-order:markers stroke fill"
         id="rect2485"
         width="7.2146435"
         height="4.3583298"
         x="56.557091"
         y="129.3073"
         ry="0.40362725"
         rx="0"
         inkscape:spray-origin="#rect918" /><rect
         style="fill:#a543ae;fill-opacity:1;stroke:none;stroke-width:3.49999;stroke-linejoin:bevel;paint-order:markers stroke fill"
         id="rect2487"
         width="7.2146435"
         height="4.3583298"
         x="59.715919"
         y="144.24545"
         ry="0.40362725"
         rx="0"
         inkscape:spray-origin="#rect918" /><rect
         style="fill:#a1465c;fill-opacity:1;stroke:none;stroke-width:3.49999;stroke-linejoin:bevel;paint-order:markers stroke fill"
         id="rect2489"
         width="7.2146435"
         height="4.3583298"
         x="43.889679"
         y="132.88441"
         ry="0.40362725"
         rx="0"
         inkscape:spray-origin="#rect918" /><rect
         style="fill:#d163ad;fill-opacity:1;stroke:none;stroke-width:3.49999;stroke-linejoin:bevel;paint-order:markers stroke fill"
         id="rect2491"
         width="7.2146435"
         height="4.3583298"
         x="39.421528"
         y="142.00317"
         ry="0.40362725"
         rx="0"
         inkscape:spray-origin="#rect918" /><rect
         style="fill:#9547ae;fill-opacity:1;stroke:none;stroke-width:3.49999;stroke-linejoin:bevel;paint-order:markers stroke fill"
         id="rect2493"
         width="7.2146435"
         height="4.3583298"
         x="52.723133"
         y="145.67828"
         ry="0.40362725"
         rx="0"
         inkscape:spray-origin="#rect918" /><rect
         style="fill:#8d54bc;fill-opacity:1;stroke:none;stroke-width:3.49999;stroke-linejoin:bevel;paint-order:markers stroke fill"
         id="rect2495"
         width="7.2146435"
         height="4.3583298"
         x="40.284569"
         y="130.79518"
         ry="0.40362725"
         rx="0"
         inkscape:spray-origin="#rect918" /><rect
         style="fill:#524bbc;fill-opacity:1;stroke:none;stroke-width:3.49999;stroke-linejoin:bevel;paint-order:markers stroke fill"
         id="rect2497"
         width="7.2146435"
         height="4.3583298"
         x="66.56871"
         y="137.05005"
         ry="0.40362725"
         rx="0"
         inkscape:spray-origin="#rect918" /><rect
         style="fill:#b9477c;fill-opacity:1;stroke:none;stroke-width:3.49999;stroke-linejoin:bevel;paint-order:markers stroke fill"
         id="rect2499"
         width="7.2146435"
         height="4.3583298"
         x="67.904907"
         y="145.20059"
         ry="0.40362725"
         rx="0"
         inkscape:spray-origin="#rect918" /><rect
         style="fill:#cf6f5e;fill-opacity:1;stroke:none;stroke-width:3.49999;stroke-linejoin:bevel;paint-order:markers stroke fill"
         id="rect2501"
         width="7.2146435"
         height="4.3583298"
         x="39.1908"
         y="135.9082"
         ry="0.40362725"
         rx="0"
         inkscape:spray-origin="#rect918" /><rect
         style="fill:#c84e52;fill-opacity:1;stroke:none;stroke-width:3.49999;stroke-linejoin:bevel;paint-order:markers stroke fill"
         id="rect2503"
         width="7.2146435"
         height="4.3583298"
         x="55.437637"
         y="150.40613"
         ry="0.40362725"
         rx="0"
         inkscape:spray-origin="#rect918" /><rect
         style="fill:#c53b5e;fill-opacity:1;stroke:none;stroke-width:3.49999;stroke-linejoin:bevel;paint-order:markers stroke fill"
         id="rect2505"
         width="7.2146435"
         height="4.3583298"
         x="49.757851"
         y="137.91455"
         ry="0.40362725"
         rx="0"
         inkscape:spray-origin="#rect918" /><rect
         style="fill:#9958c2;fill-opacity:1;stroke:none;stroke-width:3.49999;stroke-linejoin:bevel;paint-order:markers stroke fill"
         id="rect2521"
         width="7.2146435"
         height="4.3583298"
         x="38.157814"
         y="149.16069"
         ry="0.40362725"
         rx="0"
         inkscape:spray-origin="#rect918" /><rect
         style="fill:#b041a5;fill-opacity:1;stroke:none;stroke-width:3.49999;stroke-linejoin:bevel;paint-order:markers stroke fill"
         id="rect2559"
         width="7.2146435"
         height="4.3583298"
         x="49.298534"
         y="140.70113"
         ry="0.40362725"
         rx="0"
         inkscape:spray-origin="#rect918" /><rect
         style="fill:#c24050;fill-opacity:1;stroke:none;stroke-width:3.49999;stroke-linejoin:bevel;paint-order:markers stroke fill"
         id="rect2561"
         width="7.2146435"
         height="4.3583298"
         x="60.932995"
         y="146.93138"
         ry="0.40362725"
         rx="0"
         inkscape:spray-origin="#rect918" /><rect
         style="fill:#b35c3f;fill-opacity:1;stroke:none;stroke-width:3.49999;stroke-linejoin:bevel;paint-order:markers stroke fill"
         id="rect2563"
         width="7.2146435"
         height="4.3583298"
         x="59.631443"
         y="133.47375"
         ry="0.40362725"
         rx="0"
         inkscape:spray-origin="#rect918" /><rect
         style="fill:#c86955;fill-opacity:1;stroke:none;stroke-width:3.49999;stroke-linejoin:bevel;paint-order:markers stroke fill"
         id="rect2565"
         width="7.2146435"
         height="4.3583298"
         x="56.986061"
         y="149.35425"
         ry="0.40362725"
         rx="0"
         inkscape:spray-origin="#rect918" /><rect
         style="fill:#ae43aa;fill-opacity:1;stroke:none;stroke-width:3.49999;stroke-linejoin:bevel;paint-order:markers stroke fill"
         id="rect2573"
         width="7.2146435"
         height="4.3583298"
         x="62.564651"
         y="147.78745"
         ry="0.40362725"
         rx="0"
         inkscape:spray-origin="#rect918" /><rect
         style="fill:#bc599a;fill-opacity:1;stroke:none;stroke-width:3.49999;stroke-linejoin:bevel;paint-order:markers stroke fill"
         id="rect2579"
         width="7.2146435"
         height="4.3583298"
         x="59.9286"
         y="137.83281"
         ry="0.40362725"
         rx="0"
         inkscape:spray-origin="#rect918" /><rect
         style="fill:#c09e4a;fill-opacity:1;stroke:none;stroke-width:3.49999;stroke-linejoin:bevel;paint-order:markers stroke fill"
         id="rect2585"
         width="7.2146435"
         height="4.3583298"
         x="46.573856"
         y="129.67218"
         ry="0.40362725"
         rx="0"
         inkscape:spray-origin="#rect918" /><rect
         style="fill:#c34995;fill-opacity:1;stroke:none;stroke-width:3.49999;stroke-linejoin:bevel;paint-order:markers stroke fill"
         id="rect2587"
         width="7.2146435"
         height="4.3583298"
         x="47.717327"
         y="145.4207"
         ry="0.40362725"
         rx="0"
         inkscape:spray-origin="#rect918" /></g><g
       id="g15521"><path
         style="fill:none;stroke:#ff0000;stroke-width:1.9;stroke-linecap:round;stroke-linejoin:miter;stroke-dasharray:none;stroke-opacity:1"
         d="M 51.298562,133.08209 70.19649,149.92753"
         id="path7126" /><path
         style="fill:none;stroke:#ff0000;stroke-width:1.9;stroke-linecap:round;stroke-linejoin:bevel;stroke-dasharray:none;stroke-opacity:1"
         d="M 70.19649,133.08209 51.298562,149.92753"
         id="path7128" /></g><path
       id="path8745"
       style="fill:#4e4e4e;fill-opacity:1;stroke:#f2f2f2;stroke-width:0.3;stroke-dasharray:none;stroke-opacity:1;paint-order:stroke fill markers"
       d="m 49.085808,150.34007 c 0.582971,1.71372 2.542056,2.24186 4.079099,2.88103 4.134526,1.71933 9.281891,0.59205 11.943871,1.73494 0.885905,0.38035 1.848007,1.31554 2.483019,2.06567 0.744921,0.87996 1.256548,0.8849 2.101562,-0.14844 1.365108,-1.66935 3.025603,-2.19426 5.022103,-2.52364 3.30363,-0.54503 7.215336,-0.10451 10.410237,-1.26475 1.411905,-0.515 3.053741,-1.36811 3.51102,-2.86005 -0.484129,0.099 -0.760668,-0.23352 -1.018979,0.18435 -0.516181,1.83693 -2.861687,2.49744 -4.581623,2.81052 -3.242514,0.59023 -6.73409,-0.14769 -9.852787,0.92732 -1.717275,0.59194 -3.25656,1.91276 -4.587627,2.94084 -1.186867,-0.97986 -2.630929,-2.61719 -4.151324,-2.85999 -4.096942,-0.65427 -8.118039,-0.0959 -12.028031,-1.72227 -0.998332,-0.41526 -2.286818,-1.12532 -2.369473,-2.27686 -0.427219,0.0687 -0.781783,-0.16557 -0.961067,0.11133 z"
       sodipodi:nodetypes="cssssscccsacsscc" /><text
       xml:space="preserve"
       style="font-size:10.5833px;line-height:1.25;font-family:sans-serif;text-align:center;text-anchor:middle;stroke-width:0.264583"
       x="102.14178"
       y="120.02127"
       id="text14196"><tspan
         sodipodi:role="line"
         id="tspan14194"
         style="stroke-width:0.264583"
         x="102.14178"
         y="120.02127" /></text><g
       transform="matrix(0.705556,0,0,0.705556,55.210876,161.33124)"
       ns6:version="1.3.1"
       ns6:texconverter="pdflatex"
       ns6:pdfconverter="inkscape"
       ns6:text="$g\\rightarrow{}f(x)$"
       ns6:preamble="/home/rdecharette/.config/inkscape/extensions/textext/default_packages.tex"
       ns6:scale="2.0"
       ns6:alignment="middle center"
       ns6:inkscapeversion="1.2"
       ns6:jacobian_sqrt="0.705556"
       id="g14882"
       style="fill:#ffffff;fill-opacity:1"><defs
   id="id-4b857846-5694-415c-a542-0d6cc3d0572b">
    <g
   id="id-49163fa7-a6a7-45c2-a93f-70d8b39536a8">
      <symbol
   overflow="visible"
   id="id-f131164a-e2e1-4036-b772-570cf346cb59">
        <path
   style="stroke:none;stroke-width:0"
   d=""
   id="id-63994851-f624-4e08-9e88-2526f045fe36" />
      </symbol>
      <symbol
   overflow="visible"
   id="id-2fa99223-36d2-4b40-824a-0bdbcadf85ff">
        <path
   style="stroke:none;stroke-width:0"
   d="M 4.6875,-3.765625 C 4.703125,-3.8125 4.71875,-3.875 4.71875,-3.9375 c 0,-0.171875 -0.109375,-0.265625 -0.28125,-0.265625 -0.09375,0 -0.375,0.0625 -0.40625,0.421875 -0.1875,-0.359375 -0.53125,-0.625 -0.9375,-0.625 -1.125,0 -2.359375,1.390625 -2.359375,2.828125 0,0.984375 0.59375,1.578125 1.3125,1.578125 0.59375,0 1.0625,-0.46875 1.15625,-0.578125 L 3.21875,-0.5625 C 3.015625,0.3125 2.890625,0.734375 2.890625,0.75 2.84375,0.84375 2.515625,1.828125 1.453125,1.828125 1.265625,1.828125 0.9375,1.8125 0.65625,1.71875 0.953125,1.640625 1.0625,1.375 1.0625,1.203125 c 0,-0.15625 -0.109375,-0.34375 -0.375,-0.34375 -0.21875,0 -0.53125,0.171875 -0.53125,0.578125 0,0.40625 0.359375,0.609375 1.3125,0.609375 1.25,0 1.96875,-0.78125 2.125,-1.375 z M 3.40625,-1.28125 C 3.34375,-1.015625 3.109375,-0.765625 2.890625,-0.578125 2.6875,-0.40625 2.375,-0.21875 2.078125,-0.21875 c -0.5,0 -0.640625,-0.515625 -0.640625,-0.921875 0,-0.46875 0.28125,-1.65625 0.5625,-2.15625 C 2.265625,-3.78125 2.6875,-4.1875 3.109375,-4.1875 c 0.65625,0 0.796875,0.8125 0.796875,0.859375 0,0.046875 -0.015625,0.109375 -0.03125,0.140625 z m 0,0"
   id="id-114c51df-68a8-4824-b094-596e18e2d7d0" />
      </symbol>
      <symbol
   overflow="visible"
   id="id-79f320b5-d48a-4fec-a079-74f649680c46">
        <path
   style="stroke:none;stroke-width:0"
   d="m 3.65625,-3.984375 h 0.859375 c 0.203125,0 0.296875,0 0.296875,-0.203125 0,-0.109375 -0.09375,-0.109375 -0.265625,-0.109375 H 3.71875 L 3.921875,-5.4375 c 0.046875,-0.203125 0.1875,-0.90625 0.25,-1.03125 0.078125,-0.1875 0.25,-0.34375 0.46875,-0.34375 0.03125,0 0.296875,0 0.484375,0.1875 -0.4375,0.03125 -0.546875,0.390625 -0.546875,0.53125 0,0.234375 0.1875,0.359375 0.375,0.359375 C 5.21875,-5.734375 5.5,-5.96875 5.5,-6.34375 c 0,-0.453125 -0.453125,-0.6875 -0.859375,-0.6875 -0.34375,0 -0.96875,0.1875 -1.265625,1.171875 -0.0625,0.203125 -0.09375,0.3125 -0.328125,1.5625 h -0.6875 c -0.203125,0 -0.3125,0 -0.3125,0.1875 0,0.125 0.09375,0.125 0.28125,0.125 h 0.65625 L 2.25,-0.046875 c -0.1875,0.96875 -0.359375,1.875 -0.875,1.875 -0.046875,0 -0.28125,0 -0.484375,-0.1875 C 1.359375,1.609375 1.453125,1.25 1.453125,1.109375 1.453125,0.875 1.265625,0.75 1.078125,0.75 0.8125,0.75 0.53125,0.984375 0.53125,1.359375 c 0,0.4375 0.4375,0.6875 0.84375,0.6875 0.546875,0 0.953125,-0.59375 1.125,-0.96875 0.328125,-0.625 0.546875,-1.828125 0.5625,-1.90625 z m 0,0"
   id="id-9b22b948-4d1f-428d-abe9-722e65f9dc91" />
      </symbol>
      <symbol
   overflow="visible"
   id="id-b0dd1618-9412-4462-94a2-f8bf323b962c">
        <path
   style="stroke:none;stroke-width:0"
   d="M 3.328125,-3.015625 C 3.390625,-3.265625 3.625,-4.1875 4.3125,-4.1875 c 0.046875,0 0.296875,0 0.5,0.125 C 4.53125,-4 4.34375,-3.765625 4.34375,-3.515625 c 0,0.15625 0.109375,0.34375 0.375,0.34375 0.21875,0 0.53125,-0.171875 0.53125,-0.578125 0,-0.515625 -0.578125,-0.65625 -0.921875,-0.65625 -0.578125,0 -0.921875,0.53125 -1.046875,0.75 -0.25,-0.65625 -0.78125,-0.75 -1.078125,-0.75 -1.03125,0 -1.609375,1.28125 -1.609375,1.53125 0,0.109375 0.109375,0.109375 0.125,0.109375 0.078125,0 0.109375,-0.03125 0.125,-0.109375 0.34375,-1.0625 1,-1.3125 1.34375,-1.3125 0.1875,0 0.53125,0.09375 0.53125,0.671875 0,0.3125 -0.171875,0.96875 -0.53125,2.375 -0.15625,0.609375 -0.515625,1.03125 -0.953125,1.03125 -0.0625,0 -0.28125,0 -0.5,-0.125 0.25,-0.0625 0.46875,-0.265625 0.46875,-0.546875 0,-0.265625 -0.21875,-0.34375 -0.359375,-0.34375 -0.3125,0 -0.546875,0.25 -0.546875,0.578125 0,0.453125 0.484375,0.65625 0.921875,0.65625 0.671875,0 1.03125,-0.703125 1.046875,-0.75 0.125,0.359375 0.484375,0.75 1.078125,0.75 1.03125,0 1.59375,-1.28125 1.59375,-1.53125 0,-0.109375 -0.078125,-0.109375 -0.109375,-0.109375 -0.09375,0 -0.109375,0.046875 -0.140625,0.109375 -0.328125,1.078125 -1,1.3125 -1.3125,1.3125 -0.390625,0 -0.546875,-0.3125 -0.546875,-0.65625 0,-0.21875 0.046875,-0.4375 0.15625,-0.875 z m 0,0"
   id="id-2e0cece6-4f02-495f-902b-a280dda2bc3c" />
      </symbol>
      <symbol
   overflow="visible"
   id="id-644e1bcc-1503-4979-89f8-2ebb30b5fdb0">
        <path
   style="stroke:none;stroke-width:0"
   d=""
   id="id-49e6c895-8304-467d-8dfb-61a029c5b147" />
      </symbol>
      <symbol
   overflow="visible"
   id="id-c8b8c4b2-8165-434b-9d9b-3fc2ee30bfde">
        <path
   style="stroke:none;stroke-width:0"
   d="M 8.3125,-2.296875 C 7.765625,-1.875 7.5,-1.46875 7.421875,-1.328125 c -0.453125,0.6875 -0.53125,1.3125 -0.53125,1.3125 0,0.125 0.125,0.125 0.203125,0.125 C 7.25,0.109375 7.265625,0.09375 7.3125,-0.09375 7.53125,-1.0625 8.125,-1.90625 9.25,-2.359375 9.375,-2.40625 9.40625,-2.421875 9.40625,-2.5 c 0,-0.0625 -0.0625,-0.09375 -0.078125,-0.109375 C 8.875,-2.765625 7.671875,-3.265625 7.296875,-4.9375 7.265625,-5.0625 7.25,-5.09375 7.09375,-5.09375 c -0.078125,0 -0.203125,0 -0.203125,0.125 0,0.015625 0.09375,0.640625 0.5,1.3125 0.203125,0.296875 0.5,0.640625 0.921875,0.96875 H 0.90625 c -0.171875,0 -0.359375,0 -0.359375,0.1875 0,0.203125 0.1875,0.203125 0.359375,0.203125 z m 0,0"
   id="id-49ae80a9-1672-4568-9210-051ecd6e708c" />
      </symbol>
      <symbol
   overflow="visible"
   id="id-9b5994e1-4394-4794-8744-a8199f2f3462">
        <path
   style="stroke:none;stroke-width:0"
   d=""
   id="id-d05e40f6-e58f-4d3e-981f-1a8e30acc9e0" />
      </symbol>
      <symbol
   overflow="visible"
   id="id-092aba56-1058-4123-bfe2-384268c0e773">
        <path
   style="stroke:none;stroke-width:0"
   d="m 3.296875,2.390625 c 0,-0.03125 0,-0.046875 -0.171875,-0.21875 C 1.890625,0.921875 1.5625,-0.96875 1.5625,-2.5 c 0,-1.734375 0.375,-3.46875 1.609375,-4.703125 0.125,-0.125 0.125,-0.140625 0.125,-0.171875 0,-0.078125 -0.03125,-0.109375 -0.09375,-0.109375 -0.109375,0 -1,0.6875 -1.59375,1.953125 -0.5,1.09375 -0.625,2.203125 -0.625,3.03125 0,0.78125 0.109375,1.984375 0.65625,3.125 C 2.25,1.84375 3.09375,2.5 3.203125,2.5 c 0.0625,0 0.09375,-0.03125 0.09375,-0.109375 z m 0,0"
   id="id-734c152f-88d7-4749-a09e-c2c3d25eac29" />
      </symbol>
      <symbol
   overflow="visible"
   id="id-683e82cc-e497-48c1-8fac-414445eb3475">
        <path
   style="stroke:none;stroke-width:0"
   d="m 2.875,-2.5 c 0,-0.765625 -0.109375,-1.96875 -0.65625,-3.109375 -0.59375,-1.21875 -1.453125,-1.875 -1.546875,-1.875 -0.0625,0 -0.109375,0.046875 -0.109375,0.109375 0,0.03125 0,0.046875 0.1875,0.234375 0.984375,0.984375 1.546875,2.5625 1.546875,4.640625 0,1.71875 -0.359375,3.46875 -1.59375,4.71875 C 0.5625,2.34375 0.5625,2.359375 0.5625,2.390625 0.5625,2.453125 0.609375,2.5 0.671875,2.5 0.765625,2.5 1.671875,1.8125 2.25,0.546875 2.765625,-0.546875 2.875,-1.65625 2.875,-2.5 Z m 0,0"
   id="id-92a72318-47fe-4f1b-9ef4-badfadc0b3c4" />
      </symbol>
    </g>
  </defs>
  <g
   id="id-c9bc9bc8-bc2c-40dc-b71b-50e7e4ece07b"
   transform="translate(-148.868,-127.281)"
   style="fill:#ffffff;fill-opacity:1">
    <g
   style="fill:#ffffff;fill-opacity:1"
   id="id-02afe270-3486-4a0d-97fa-2ba2e99458ef">
      <g
   transform="translate(148.712,134.765)"
   id="g14858"
   style="fill:#ffffff;fill-opacity:1"><path
   style="stroke:none;stroke-width:0;fill:#ffffff;fill-opacity:1"
   d="M 4.6875,-3.765625 C 4.703125,-3.8125 4.71875,-3.875 4.71875,-3.9375 c 0,-0.171875 -0.109375,-0.265625 -0.28125,-0.265625 -0.09375,0 -0.375,0.0625 -0.40625,0.421875 -0.1875,-0.359375 -0.53125,-0.625 -0.9375,-0.625 -1.125,0 -2.359375,1.390625 -2.359375,2.828125 0,0.984375 0.59375,1.578125 1.3125,1.578125 0.59375,0 1.0625,-0.46875 1.15625,-0.578125 L 3.21875,-0.5625 C 3.015625,0.3125 2.890625,0.734375 2.890625,0.75 2.84375,0.84375 2.515625,1.828125 1.453125,1.828125 1.265625,1.828125 0.9375,1.8125 0.65625,1.71875 0.953125,1.640625 1.0625,1.375 1.0625,1.203125 c 0,-0.15625 -0.109375,-0.34375 -0.375,-0.34375 -0.21875,0 -0.53125,0.171875 -0.53125,0.578125 0,0.40625 0.359375,0.609375 1.3125,0.609375 1.25,0 1.96875,-0.78125 2.125,-1.375 z M 3.40625,-1.28125 C 3.34375,-1.015625 3.109375,-0.765625 2.890625,-0.578125 2.6875,-0.40625 2.375,-0.21875 2.078125,-0.21875 c -0.5,0 -0.640625,-0.515625 -0.640625,-0.921875 0,-0.46875 0.28125,-1.65625 0.5625,-2.15625 C 2.265625,-3.78125 2.6875,-4.1875 3.109375,-4.1875 c 0.65625,0 0.796875,0.8125 0.796875,0.859375 0,0.046875 -0.015625,0.109375 -0.03125,0.140625 z m 0,0"
   id="id-65b4be62-0427-4491-ad37-a0cc748357e4" />
      </g></g>
    <g
   style="fill:#ffffff;fill-opacity:1"
   id="id-ec66202a-279e-4561-95ed-d40398c39ef9">
      <g
   transform="translate(156.589,134.765)"
   id="g14862"
   style="fill:#ffffff;fill-opacity:1"><path
   style="stroke:none;stroke-width:0;fill:#ffffff;fill-opacity:1"
   d="M 8.3125,-2.296875 C 7.765625,-1.875 7.5,-1.46875 7.421875,-1.328125 c -0.453125,0.6875 -0.53125,1.3125 -0.53125,1.3125 0,0.125 0.125,0.125 0.203125,0.125 C 7.25,0.109375 7.265625,0.09375 7.3125,-0.09375 7.53125,-1.0625 8.125,-1.90625 9.25,-2.359375 9.375,-2.40625 9.40625,-2.421875 9.40625,-2.5 c 0,-0.0625 -0.0625,-0.09375 -0.078125,-0.109375 C 8.875,-2.765625 7.671875,-3.265625 7.296875,-4.9375 7.265625,-5.0625 7.25,-5.09375 7.09375,-5.09375 c -0.078125,0 -0.203125,0 -0.203125,0.125 0,0.015625 0.09375,0.640625 0.5,1.3125 0.203125,0.296875 0.5,0.640625 0.921875,0.96875 H 0.90625 c -0.171875,0 -0.359375,0 -0.359375,0.1875 0,0.203125 0.1875,0.203125 0.359375,0.203125 z m 0,0"
   id="id-8b897551-a823-43ef-970d-dcef2668818e" />
      </g></g>
    <g
   style="fill:#ffffff;fill-opacity:1"
   id="id-e5070703-08c4-44df-8975-acc64fa0825e">
      <g
   transform="translate(169.319,134.765)"
   id="g14866"
   style="fill:#ffffff;fill-opacity:1"><path
   style="stroke:none;stroke-width:0;fill:#ffffff;fill-opacity:1"
   d="m 3.65625,-3.984375 h 0.859375 c 0.203125,0 0.296875,0 0.296875,-0.203125 0,-0.109375 -0.09375,-0.109375 -0.265625,-0.109375 H 3.71875 L 3.921875,-5.4375 c 0.046875,-0.203125 0.1875,-0.90625 0.25,-1.03125 0.078125,-0.1875 0.25,-0.34375 0.46875,-0.34375 0.03125,0 0.296875,0 0.484375,0.1875 -0.4375,0.03125 -0.546875,0.390625 -0.546875,0.53125 0,0.234375 0.1875,0.359375 0.375,0.359375 C 5.21875,-5.734375 5.5,-5.96875 5.5,-6.34375 c 0,-0.453125 -0.453125,-0.6875 -0.859375,-0.6875 -0.34375,0 -0.96875,0.1875 -1.265625,1.171875 -0.0625,0.203125 -0.09375,0.3125 -0.328125,1.5625 h -0.6875 c -0.203125,0 -0.3125,0 -0.3125,0.1875 0,0.125 0.09375,0.125 0.28125,0.125 h 0.65625 L 2.25,-0.046875 c -0.1875,0.96875 -0.359375,1.875 -0.875,1.875 -0.046875,0 -0.28125,0 -0.484375,-0.1875 C 1.359375,1.609375 1.453125,1.25 1.453125,1.109375 1.453125,0.875 1.265625,0.75 1.078125,0.75 0.8125,0.75 0.53125,0.984375 0.53125,1.359375 c 0,0.4375 0.4375,0.6875 0.84375,0.6875 0.546875,0 0.953125,-0.59375 1.125,-0.96875 0.328125,-0.625 0.546875,-1.828125 0.5625,-1.90625 z m 0,0"
   id="id-5b82b5a1-ca97-46d4-b214-559c165d6ead" />
      </g></g>
    <g
   style="fill:#ffffff;fill-opacity:1"
   id="id-01f51d45-00db-4cb7-9605-6c247539d611">
      <g
   transform="translate(175.269,134.765)"
   id="g14870"
   style="fill:#ffffff;fill-opacity:1"><path
   style="stroke:none;stroke-width:0;fill:#ffffff;fill-opacity:1"
   d="m 3.296875,2.390625 c 0,-0.03125 0,-0.046875 -0.171875,-0.21875 C 1.890625,0.921875 1.5625,-0.96875 1.5625,-2.5 c 0,-1.734375 0.375,-3.46875 1.609375,-4.703125 0.125,-0.125 0.125,-0.140625 0.125,-0.171875 0,-0.078125 -0.03125,-0.109375 -0.09375,-0.109375 -0.109375,0 -1,0.6875 -1.59375,1.953125 -0.5,1.09375 -0.625,2.203125 -0.625,3.03125 0,0.78125 0.109375,1.984375 0.65625,3.125 C 2.25,1.84375 3.09375,2.5 3.203125,2.5 c 0.0625,0 0.09375,-0.03125 0.09375,-0.109375 z m 0,0"
   id="id-0d58d6a4-3d2b-40eb-bef0-b31fcc4a566c" />
      </g></g>
    <g
   style="fill:#ffffff;fill-opacity:1"
   id="id-0a97253a-b66c-4069-8071-98cd487c51b9">
      <g
   transform="translate(179.143,134.765)"
   id="g14874"
   style="fill:#ffffff;fill-opacity:1"><path
   style="stroke:none;stroke-width:0;fill:#ffffff;fill-opacity:1"
   d="M 3.328125,-3.015625 C 3.390625,-3.265625 3.625,-4.1875 4.3125,-4.1875 c 0.046875,0 0.296875,0 0.5,0.125 C 4.53125,-4 4.34375,-3.765625 4.34375,-3.515625 c 0,0.15625 0.109375,0.34375 0.375,0.34375 0.21875,0 0.53125,-0.171875 0.53125,-0.578125 0,-0.515625 -0.578125,-0.65625 -0.921875,-0.65625 -0.578125,0 -0.921875,0.53125 -1.046875,0.75 -0.25,-0.65625 -0.78125,-0.75 -1.078125,-0.75 -1.03125,0 -1.609375,1.28125 -1.609375,1.53125 0,0.109375 0.109375,0.109375 0.125,0.109375 0.078125,0 0.109375,-0.03125 0.125,-0.109375 0.34375,-1.0625 1,-1.3125 1.34375,-1.3125 0.1875,0 0.53125,0.09375 0.53125,0.671875 0,0.3125 -0.171875,0.96875 -0.53125,2.375 -0.15625,0.609375 -0.515625,1.03125 -0.953125,1.03125 -0.0625,0 -0.28125,0 -0.5,-0.125 0.25,-0.0625 0.46875,-0.265625 0.46875,-0.546875 0,-0.265625 -0.21875,-0.34375 -0.359375,-0.34375 -0.3125,0 -0.546875,0.25 -0.546875,0.578125 0,0.453125 0.484375,0.65625 0.921875,0.65625 0.671875,0 1.03125,-0.703125 1.046875,-0.75 0.125,0.359375 0.484375,0.75 1.078125,0.75 1.03125,0 1.59375,-1.28125 1.59375,-1.53125 0,-0.109375 -0.078125,-0.109375 -0.109375,-0.109375 -0.09375,0 -0.109375,0.046875 -0.140625,0.109375 -0.328125,1.078125 -1,1.3125 -1.3125,1.3125 -0.390625,0 -0.546875,-0.3125 -0.546875,-0.65625 0,-0.21875 0.046875,-0.4375 0.15625,-0.875 z m 0,0"
   id="id-d32afbd7-03b3-4f78-9c22-2e2ff9e3f0a3" />
      </g></g>
    <g
   style="fill:#ffffff;fill-opacity:1"
   id="id-20af8bd1-91d6-40a4-a467-7f33ef7674fd">
      <g
   transform="translate(184.837,134.765)"
   id="g14878"
   style="fill:#ffffff;fill-opacity:1"><path
   style="stroke:none;stroke-width:0;fill:#ffffff;fill-opacity:1"
   d="m 2.875,-2.5 c 0,-0.765625 -0.109375,-1.96875 -0.65625,-3.109375 -0.59375,-1.21875 -1.453125,-1.875 -1.546875,-1.875 -0.0625,0 -0.109375,0.046875 -0.109375,0.109375 0,0.03125 0,0.046875 0.1875,0.234375 0.984375,0.984375 1.546875,2.5625 1.546875,4.640625 0,1.71875 -0.359375,3.46875 -1.59375,4.71875 C 0.5625,2.34375 0.5625,2.359375 0.5625,2.390625 0.5625,2.453125 0.609375,2.5 0.671875,2.5 0.765625,2.5 1.671875,1.8125 2.25,0.546875 2.765625,-0.546875 2.875,-1.65625 2.875,-2.5 Z m 0,0"
   id="id-b0ca2285-b3aa-455d-be18-715e10b915f9" />
      </g></g>
  </g>
</g></g></svg>
