<?xml version="1.0" encoding="UTF-8" standalone="no"?>
<!-- Created with Inkscape (http://www.inkscape.org/) -->

<svg
   width="210mm"
   height="297mm"
   viewBox="0 0 210 297"
   version="1.1"
   id="svg5"
   xml:space="preserve"
   inkscape:version="1.2 (1:1.2.1+202207142221+cd75a1ee6d)"
   sodipodi:docname="axis_weak.svg"
   inkscape:export-filename="axis_complexvision.png"
   inkscape:export-xdpi="150"
   inkscape:export-ydpi="150"
   xmlns:inkscape="http://www.inkscape.org/namespaces/inkscape"
   xmlns:sodipodi="http://sodipodi.sourceforge.net/DTD/sodipodi-0.dtd"
   xmlns="http://www.w3.org/2000/svg"
   xmlns:svg="http://www.w3.org/2000/svg"><sodipodi:namedview
     id="namedview7"
     pagecolor="#ffffff"
     bordercolor="#666666"
     borderopacity="1.0"
     inkscape:showpageshadow="2"
     inkscape:pageopacity="0.0"
     inkscape:pagecheckerboard="0"
     inkscape:deskcolor="#d1d1d1"
     inkscape:document-units="mm"
     showgrid="false"
     showguides="true"
     inkscape:zoom="2.8284271"
     inkscape:cx="316.25351"
     inkscape:cy="532.98173"
     inkscape:window-width="2488"
     inkscape:window-height="1376"
     inkscape:window-x="72"
     inkscape:window-y="214"
     inkscape:window-maximized="1"
     inkscape:current-layer="layer1"><sodipodi:guide
       position="76.597145,115.10313"
       orientation="1,0"
       id="guide687"
       inkscape:locked="false" /><sodipodi:guide
       position="59.583126,169.74846"
       orientation="0,-1"
       id="guide850"
       inkscape:locked="false" /><sodipodi:guide
       position="59.214923,114.0353"
       orientation="0,-1"
       id="guide856"
       inkscape:locked="false" /><sodipodi:guide
       position="58.990573,169.65067"
       orientation="1,0"
       id="guide858"
       inkscape:locked="false" /><sodipodi:guide
       position="95.612234,114.0353"
       orientation="1,0"
       id="guide860"
       inkscape:locked="false" /><sodipodi:guide
       position="40.065483,162.15585"
       orientation="1,0"
       id="guide862"
       inkscape:locked="false" /></sodipodi:namedview><defs
     id="defs2"><mask
       maskUnits="userSpaceOnUse"
       id="mask642"><rect
         style="fill:#ffffff;stroke:none;stroke-width:2.47784;stroke-linejoin:bevel;paint-order:markers stroke fill"
         id="rect644"
         width="18.925089"
         height="55.713161"
         x="40.058685"
         y="127.37289"
         ry="0" /></mask><mask
       maskUnits="userSpaceOnUse"
       id="mask751"><rect
         style="fill:#ffffff;stroke:none;stroke-width:2.48372;stroke-linejoin:bevel;paint-order:markers stroke fill"
         id="rect753"
         width="19.015089"
         height="55.713161"
         x="76.597145"
         y="127.25154"
         ry="0" /></mask><mask
       maskUnits="userSpaceOnUse"
       id="mask884"><rect
         style="fill:#ffffff;stroke:none;stroke-width:2.53079;stroke-linejoin:bevel;paint-order:markers stroke fill"
         id="rect886"
         width="20.738461"
         height="53.03796"
         x="58.990574"
         y="127.25153"
         ry="0" /></mask></defs><g
     inkscape:label="Layer 1"
     inkscape:groupmode="layer"
     id="layer1"><rect
       style="fill:none;stroke:#000000;stroke-width:0.37041667;stroke-linejoin:bevel;stroke-dasharray:none;stroke-opacity:1;paint-order:markers stroke fill"
       id="rect3883"
       width="37.043579"
       height="17.615486"
       x="50.087513"
       y="153.42387"
       ry="4.9364934" /><rect
       style="fill:#000000;stroke:none;stroke-width:0.268211;stroke-linejoin:bevel;stroke-dasharray:none;stroke-opacity:1;paint-order:markers stroke fill"
       id="rect3937"
       width="4.6150227"
       height="3.4378319"
       x="80.772057"
       y="129.46326"
       rx="0.29490215"
       ry="0" /><path
       id="rect3941"
       style="fill:#808000;stroke-width:0.268211;stroke-linejoin:bevel;paint-order:markers stroke fill"
       d="M 75.410156 137.53516 C 75.162871 137.58193 75.15633 137.86834 75.175781 138.06606 C 75.179684 138.95475 75.167974 139.8442 75.181641 140.73242 C 75.227684 140.98195 75.514037 140.98592 75.712542 140.9668 C 76.989687 140.96356 78.267477 140.97325 79.544221 140.96198 C 79.726176 140.93861 79.817445 140.7421 79.789129 140.57514 C 79.78584 139.63873 79.798278 138.70155 79.785156 137.76562 C 79.739716 137.5172 79.452679 137.50921 79.254255 137.5293 C 77.9771 137.53243 76.69934 137.52305 75.42256 137.53396 L 75.410156 137.53516 z " /><rect
       style="fill:#2b0000;stroke:none;stroke-width:0.268211;stroke-linejoin:bevel;stroke-dasharray:none;stroke-opacity:1;paint-order:markers stroke fill"
       id="rect3943"
       width="4.6150227"
       height="3.4378319"
       x="75.018517"
       y="129.38292"
       rx="0.29490215"
       ry="0" /><rect
       style="fill:#ff8080;stroke:none;stroke-width:0.268211;stroke-linejoin:bevel;stroke-dasharray:none;stroke-opacity:1;paint-order:markers stroke fill"
       id="rect3945"
       width="4.6150227"
       height="3.4378319"
       x="82.738541"
       y="129.08882"
       rx="0.29490215"
       ry="0" /><rect
       style="fill:#803300;stroke:none;stroke-width:0.268211;stroke-linejoin:bevel;stroke-dasharray:none;stroke-opacity:1;paint-order:markers stroke fill"
       id="rect3947"
       width="4.6150227"
       height="3.4378319"
       x="74.068024"
       y="131.3759"
       rx="0.29490215"
       ry="0" /><path
       id="rect3949"
       style="fill:#504416;stroke-width:0.268211;stroke-linejoin:bevel;paint-order:markers stroke fill"
       d="M 85.34375 139.35352 C 85.178529 139.34224 85.057898 139.50814 85.081799 139.6636 C 85.077322 140.5954 85.07282 141.52719 85.068359 142.45898 C 85.062683 142.62756 85.228858 142.7558 85.390164 142.73261 C 86.731149 142.73445 88.072777 142.74973 89.413362 142.74323 C 89.572225 142.72395 89.676367 142.55829 89.65423 142.41062 C 89.648975 141.4581 89.659447 140.50475 89.644531 139.55273 C 89.615262 139.40442 89.464946 139.30828 89.314915 139.32843 C 87.991193 139.33679 86.667472 139.34515 85.34375 139.35352 z " /><rect
       style="fill:#504416;stroke:none;stroke-width:0.268211;stroke-linejoin:bevel;stroke-dasharray:none;stroke-opacity:1;paint-order:markers stroke fill"
       id="rect3951"
       width="4.6150227"
       height="3.4378319"
       x="73.359245"
       y="144.20041"
       rx="0.29490215"
       ry="0" /><path
       id="rect4795"
       style="stroke-width:0.268211;stroke-linejoin:bevel;paint-order:markers stroke fill"
       d="M 86.564453 132.76367 C 86.3163 132.80766 86.310751 133.09787 86.331074 133.29457 C 86.338579 134.18195 86.330753 135.07018 86.347656 135.95703 C 86.378802 136.12887 86.563452 136.20747 86.723688 136.18197 C 88.04855 136.18312 89.374056 136.19765 90.698518 136.1905 C 90.92926 136.16003 90.973889 135.89703 90.945312 135.70692 C 90.94141 134.8021 90.95312 133.89653 90.939453 132.99219 C 90.893116 132.74331 90.606881 132.73859 90.408552 132.75781 C 89.131397 132.76095 87.853637 132.75156 86.576857 132.76247 L 86.564453 132.76367 z " /><path
       id="rect4797"
       style="fill:#808000;stroke-width:0.268211;stroke-linejoin:bevel;paint-order:markers stroke fill"
       d="M 83.955078 142.71484 C 83.783503 142.7082 83.649994 142.87494 83.673563 143.04055 C 83.67246 143.99243 83.654859 144.94509 83.664062 145.89648 C 83.708666 146.14531 83.996946 146.15256 84.194963 146.13281 C 85.472119 146.12968 86.749878 146.13906 88.026658 146.12815 C 88.258098 146.09862 88.301927 145.83432 88.272774 145.64442 C 88.265799 144.74027 88.274241 143.83529 88.257812 142.93164 C 88.223613 142.76159 88.04051 142.68202 87.879827 142.70913 C 86.571578 142.71103 85.263328 142.71294 83.955078 142.71484 z " /><path
       id="rect4799"
       style="fill:#2b0000;stroke-width:0.268211;stroke-linejoin:bevel;paint-order:markers stroke fill"
       d="M 82.650391 135.65234 C 82.474236 135.68205 82.389878 135.86853 82.418433 136.03228 C 82.42674 136.96868 82.419881 137.90592 82.4375 138.8418 C 82.469568 139.009 82.65114 139.07931 82.805719 139.05445 C 84.110552 139.05258 85.437475 139.04547 86.728516 139.04688 C 86.895788 139.05598 87.020025 138.89169 86.998379 138.73288 C 87.001137 137.7845 87.018863 136.83538 87.012425 135.88745 C 86.990074 135.73079 86.832109 135.62769 86.684054 135.65034 C 85.34243 135.65242 84.000116 135.641 82.65892 135.65146 L 82.650391 135.65234 z " /><path
       id="rect4801"
       style="fill:#ff8080;stroke-width:0.268211;stroke-linejoin:bevel;paint-order:markers stroke fill"
       d="M 89.958984 133.40234 C 89.709463 133.44839 89.705433 133.73474 89.724775 133.93324 C 89.72926 134.82194 89.718242 135.71139 89.732422 136.59961 C 89.766704 136.79683 89.990881 136.86221 90.164634 136.8321 C 91.473384 136.82959 92.782737 136.83966 94.091112 136.82933 C 94.323971 136.79992 94.366495 136.5364 94.337891 136.34559 C 94.333988 135.44078 94.345699 134.5352 94.332031 133.63086 C 94.288041 133.38267 93.997833 133.3775 93.80113 133.39648 C 92.524626 133.39962 91.247517 133.39023 89.971388 133.40114 L 89.958984 133.40234 z " /><path
       id="rect4803"
       style="fill:#803300;stroke-width:0.268211;stroke-linejoin:bevel;paint-order:markers stroke fill"
       d="M 84.017578 139.31445 C 83.851744 139.30619 83.72553 139.46968 83.749834 139.62845 C 83.745334 140.55801 83.746021 141.50017 83.738281 142.42188 C 83.732276 142.59197 83.899555 142.72423 84.063993 142.69929 C 85.389016 142.70122 86.714039 142.70315 88.039062 142.70508 C 88.187687 142.71467 88.330994 142.56993 88.320312 142.42188 C 88.31376 141.45454 88.322723 140.48632 88.306641 139.51953 C 88.277412 139.35138 88.093783 139.27955 87.940374 139.30492 C 86.632776 139.3081 85.325177 139.31128 84.017578 139.31445 z " /><path
       id="rect4805"
       style="fill:#504416;stroke-width:0.268211;stroke-linejoin:bevel;paint-order:markers stroke fill"
       d="M 90.521484 141.67383 C 90.344212 141.67062 90.206191 141.83775 90.230402 142.01516 C 90.233054 142.96769 90.219871 143.921 90.232422 144.87305 C 90.275076 145.12237 90.565931 145.12901 90.763323 145.10938 C 92.039827 145.10624 93.316936 145.11563 94.593065 145.10472 C 94.825375 145.07511 94.868361 144.81155 94.839844 144.62098 C 94.835941 143.71617 94.847652 142.8106 94.833984 141.90625 C 94.790452 141.65648 94.5004 141.6531 94.303083 141.67199 C 93.04255 141.6726 91.782017 141.67322 90.521484 141.67383 z " /><path
       id="rect4807"
       style="fill:#504416;stroke-width:0.268211;stroke-linejoin:bevel;paint-order:markers stroke fill"
       d="M 80.404297 145.63672 C 80.154815 145.68062 80.148324 145.96965 80.167969 146.16762 C 80.171873 147.05566 80.160159 147.94448 80.173828 148.83203 C 80.219269 149.08046 80.506306 149.08845 80.704729 149.06836 C 81.981884 149.06522 83.259644 149.07461 84.536424 149.0637 C 84.767399 149.03391 84.811542 148.76974 84.783203 148.57997 C 84.779301 147.67515 84.791011 146.76958 84.777344 145.86523 C 84.736503 145.63801 84.483999 145.61001 84.294811 145.63272 C 83.001543 145.63535 81.70763 145.62497 80.414763 145.63567 L 80.404297 145.63672 z " /><rect
       style="fill:#000000;stroke:none;stroke-width:0.268211;stroke-linejoin:bevel;stroke-dasharray:none;stroke-opacity:1;paint-order:markers stroke fill"
       id="rect4809"
       width="4.6150227"
       height="3.4378319"
       x="73.511368"
       y="125.56442"
       rx="0.29490215"
       ry="0" /><rect
       style="fill:#808000;stroke:none;stroke-width:0.268211;stroke-linejoin:bevel;stroke-dasharray:none;stroke-opacity:1;paint-order:markers stroke fill"
       id="rect4811"
       width="4.6150227"
       height="3.4378319"
       x="70.408302"
       y="140.9184"
       rx="0.29490215"
       ry="0" /><rect
       style="fill:#2b0000;stroke:none;stroke-width:0.268211;stroke-linejoin:bevel;stroke-dasharray:none;stroke-opacity:1;paint-order:markers stroke fill"
       id="rect4813"
       width="4.6150227"
       height="3.4378319"
       x="66.985565"
       y="132.05426"
       rx="0.29490215"
       ry="0" /><rect
       style="fill:#ff8080;stroke:none;stroke-width:0.268211;stroke-linejoin:bevel;stroke-dasharray:none;stroke-opacity:1;paint-order:markers stroke fill"
       id="rect4815"
       width="4.6150227"
       height="3.4378319"
       x="75.112877"
       y="126.14334"
       rx="0.29490215"
       ry="0" /><rect
       style="fill:#803300;stroke:none;stroke-width:0.268211;stroke-linejoin:bevel;stroke-dasharray:none;stroke-opacity:1;paint-order:markers stroke fill"
       id="rect4817"
       width="4.6150227"
       height="3.4378319"
       x="67.674461"
       y="135.0368"
       rx="0.29490215"
       ry="0" /><rect
       style="fill:#504416;stroke:none;stroke-width:0.268211;stroke-linejoin:bevel;stroke-dasharray:none;stroke-opacity:1;paint-order:markers stroke fill"
       id="rect4819"
       width="4.6150227"
       height="3.4378319"
       x="73.746178"
       y="137.9697"
       rx="0.29490215"
       ry="0" /><rect
       style="fill:#504416;stroke:none;stroke-width:0.268211;stroke-linejoin:bevel;stroke-dasharray:none;stroke-opacity:1;paint-order:markers stroke fill"
       id="rect4821"
       width="4.6150227"
       height="3.4378319"
       x="64.233978"
       y="138.55684"
       rx="0.29490215"
       ry="0" /><path
       id="rect4823"
       style="stroke-width:0.268211;stroke-linejoin:bevel;paint-order:markers stroke fill"
       d="M 77.466797 131.66016 C 77.217714 131.70532 77.210457 131.99246 77.230469 132.19106 C 77.234371 133.07975 77.222661 133.9692 77.236328 134.85742 C 77.2831 135.10471 77.569508 135.11125 77.767229 135.0918 C 79.044384 135.08866 80.322144 135.09805 81.598924 135.08714 C 81.831275 135.05784 81.873937 134.79371 81.845703 134.6034 C 81.841801 133.69859 81.853511 132.79302 81.839844 131.88867 C 81.794642 131.64039 81.506253 131.63527 81.308943 131.6543 C 80.031798 131.65754 78.754007 131.64784 77.477263 131.65911 L 77.466797 131.66016 z " /><rect
       style="fill:#808000;stroke:none;stroke-width:0.268211;stroke-linejoin:bevel;stroke-dasharray:none;stroke-opacity:1;paint-order:markers stroke fill"
       id="rect4825"
       width="4.6150227"
       height="3.4378319"
       x="74.049965"
       y="145.38065"
       rx="0.29490215"
       ry="0" /><rect
       style="fill:#2b0000;stroke:none;stroke-width:0.268211;stroke-linejoin:bevel;stroke-dasharray:none;stroke-opacity:1;paint-order:markers stroke fill"
       id="rect4827"
       width="4.6150227"
       height="3.4378319"
       x="72.775681"
       y="132.01797"
       rx="0.29490215"
       ry="0" /><path
       id="rect4829"
       style="fill:#ff8080;stroke-width:0.268211;stroke-linejoin:bevel;paint-order:markers stroke fill"
       d="M 79.572266 132.79883 C 79.324103 132.84515 79.318784 133.13189 79.337891 133.32973 C 79.341793 134.21842 79.330083 135.10787 79.34375 135.99609 C 79.388506 136.24524 79.67716 136.24938 79.87465 136.22976 C 81.135834 136.22609 82.397019 136.22241 83.658203 136.21875 C 83.830851 136.22098 83.965229 136.05349 83.941605 135.88523 C 83.941455 134.93335 83.957587 133.98069 83.947266 133.0293 C 83.900959 132.78184 83.61481 132.7724 83.416365 132.79297 C 82.139209 132.7961 80.86145 132.78672 79.58467 132.79763 L 79.572266 132.79883 z " /><rect
       style="fill:#803300;stroke:none;stroke-width:0.268211;stroke-linejoin:bevel;stroke-dasharray:none;stroke-opacity:1;paint-order:markers stroke fill"
       id="rect4831"
       width="4.6150227"
       height="3.4378319"
       x="74.166328"
       y="140.51248"
       rx="0.29490215"
       ry="0" /><path
       id="rect4833"
       style="fill:#504416;stroke-width:0.268211;stroke-linejoin:bevel;paint-order:markers stroke fill"
       d="M 82.792969 141.83789 C 82.625113 141.86474 82.544481 142.04827 82.569848 142.20416 C 82.569444 143.14056 82.552668 144.07775 82.5625 145.01367 C 82.604898 145.26201 82.894516 145.2701 83.091448 145.24988 C 84.368603 145.24614 85.646363 145.25486 86.923143 145.24339 C 87.127876 145.21671 87.20058 144.98832 87.166974 144.80998 C 87.160799 143.90848 87.154589 143.00697 87.148438 142.10547 C 87.149777 141.93855 86.987027 141.81075 86.824679 141.83782 C 85.499656 141.83589 84.174633 141.83396 82.849609 141.83203 L 82.801498 141.83701 L 82.792969 141.83789 z " /><rect
       style="fill:#504416;stroke:none;stroke-width:0.268211;stroke-linejoin:bevel;stroke-dasharray:none;stroke-opacity:1;paint-order:markers stroke fill"
       id="rect4835"
       width="4.6150227"
       height="3.4378319"
       x="71.483856"
       y="144.42442"
       rx="0.29490215"
       ry="0" /></g></svg>
